<svg width="22" height="22" viewBox="0 0 22 22" fill="none" xmlns="http://www.w3.org/2000/svg">
<path d="M2.5 19L2.5 4H4.5L4.5 19H2.5ZM19.5 4L19.5 19H17.5V4L19.5 4ZM16.5 22H5.5V20H16.5V22ZM19.5 19C19.5 20.6569 18.1569 22 16.5 22V20C17.0523 20 17.5 19.5523 17.5 19H19.5ZM4.5 19C4.5 19.5523 4.94772 20 5.5 20V22C3.84315 22 2.5 20.6569 2.5 19H4.5Z" fill="#C80000"/>
<path d="M9 10V15" stroke="#C80000" stroke-width="2" stroke-linecap="round"/>
<path d="M13 10V15" stroke="#C80000" stroke-width="2" stroke-linecap="round"/>
<path d="M1.5 4H20.5" stroke="#C80000" stroke-width="2" stroke-linecap="round"/>
<path d="M6 4L6.22147 2.6712C6.3822 1.70683 7.21658 1 8.19425 1H11H13.8057C14.7834 1 15.6178 1.70683 15.7785 2.6712L16 4" stroke="#C80000" stroke-width="2" stroke-linecap="round"/>
</svg>
