<svg width="25" height="16" viewBox="0 0 25 16" fill="none" xmlns="http://www.w3.org/2000/svg">
<path d="M17.0176 6.95312C18.8851 6.95312 20.3813 5.44562 20.3813 3.57812C20.3813 1.71063 18.8851 0.203125 17.0176 0.203125C15.1501 0.203125 13.6426 1.71063 13.6426 3.57812C13.6426 5.44562 15.1501 6.95312 17.0176 6.95312ZM8.01758 6.95312C9.88508 6.95312 11.3813 5.44562 11.3813 3.57812C11.3813 1.71063 9.88508 0.203125 8.01758 0.203125C6.15008 0.203125 4.64258 1.71063 4.64258 3.57812C4.64258 5.44562 6.15008 6.95312 8.01758 6.95312ZM8.01758 9.20312C5.39633 9.20312 0.142578 10.5194 0.142578 13.1406V15.9531H15.8926V13.1406C15.8926 10.5194 10.6388 9.20312 8.01758 9.20312ZM17.0176 9.20312C16.6913 9.20312 16.3201 9.22563 15.9263 9.25938C17.2313 10.2044 18.1426 11.4756 18.1426 13.1406V15.9531H24.8926V13.1406C24.8926 10.5194 19.6388 9.20312 17.0176 9.20312Z" fill="white"/>
</svg>
