<?xml version="1.0" standalone="no"?>
<!DOCTYPE svg PUBLIC "-//W3C//DTD SVG 20010904//EN"
 "http://www.w3.org/TR/2001/REC-SVG-20010904/DTD/svg10.dtd">
<svg version="1.0" xmlns="http://www.w3.org/2000/svg"
 width="711.000000pt" height="309.000000pt" viewBox="0 0 711.000000 309.000000"
 preserveAspectRatio="xMidYMid meet">
<metadata>
Created by potrace 1.16, written by Peter Selinger 2001-2019
</metadata>
<g transform="translate(0.000000,309.000000) scale(0.100000,-0.100000)"
fill="#000000" stroke="none">
<path d="M0 1545 l0 -1545 3555 0 3555 0 0 1545 0 1545 -3555 0 -3555 0 0
-1545z m6906 1430 c30 -19 60 -49 79 -79 l30 -49 3 -1286 c2 -871 0 -1298 -8
-1322 -15 -54 -82 -124 -138 -146 -45 -17 -175 -18 -3327 -18 l-3280 0 -48 24
c-26 13 -61 40 -77 59 -64 77 -61 2 -58 1403 l3 1274 22 42 c26 48 86 102 134
119 27 10 758 12 3325 11 l3291 -2 49 -30z"/>
<path d="M470 2759 c-35 -14 -78 -57 -101 -101 -40 -77 -12 -181 64 -242 32
-26 48 -31 105 -34 79 -3 131 21 169 77 70 104 39 237 -67 291 -43 22 -127 26
-170 9z m137 -66 c100 -47 96 -192 -6 -238 -101 -45 -211 49 -181 154 11 40
26 59 65 83 37 22 77 23 122 1z"/>
<path d="M3716 2644 c-14 -14 -16 -70 -16 -464 0 -486 -1 -480 54 -480 39 0
46 18 46 126 l0 103 46 37 46 38 41 -44 c165 -180 246 -260 265 -260 26 0 52
25 52 51 0 12 -58 82 -142 170 -118 126 -139 152 -127 163 8 7 67 59 132 115
118 104 135 129 105 159 -28 28 -58 10 -234 -148 l-179 -159 -3 292 c-2 260
-4 293 -19 305 -23 16 -48 15 -67 -4z"/>
<path d="M1277 2593 c-16 -18 -17 -56 -17 -441 0 -369 2 -422 16 -436 22 -23
416 -23 490 -1 107 32 167 117 167 239 0 48 -6 83 -18 109 -20 42 -87 105
-122 113 -22 6 -20 9 26 53 58 54 77 107 67 189 -10 84 -40 128 -116 168 -30
16 -64 19 -255 22 -207 3 -222 2 -238 -15z m428 -97 c98 -41 101 -207 4 -256
-33 -17 -59 -20 -189 -20 l-150 0 0 145 0 145 150 0 c109 0 160 -4 185 -14z
m53 -401 c38 -23 72 -87 72 -136 -1 -57 -33 -115 -79 -138 -36 -19 -58 -21
-211 -21 l-170 0 0 161 0 161 178 -4 c155 -3 181 -5 210 -23z"/>
<path d="M5193 2499 c-29 -17 -53 -34 -53 -37 0 -4 103 -106 230 -227 175
-168 227 -223 217 -231 -20 -19 -324 -194 -336 -194 -6 0 -51 22 -99 49 l-87
49 -47 -26 -48 -27 68 -70 c151 -157 140 -140 182 -290 22 -75 41 -140 44
-142 3 -3 26 7 51 21 l45 27 0 107 0 107 175 102 c96 56 176 98 178 95 2 -4
37 -147 78 -319 l74 -311 60 33 60 34 5 368 5 368 186 109 c123 72 192 118
203 137 43 72 -5 158 -89 159 -33 0 -72 -19 -220 -105 -99 -58 -187 -104 -195
-102 -9 2 -150 81 -314 175 -163 95 -303 172 -309 172 -7 0 -36 -14 -64 -31z"/>
<path d="M2320 2376 c-71 -16 -112 -38 -162 -88 -113 -113 -131 -320 -39 -459
35 -52 101 -103 163 -125 57 -20 165 -20 228 1 67 22 151 100 187 173 25 51
28 68 28 157 0 87 -3 107 -26 155 -48 101 -137 170 -243 189 -69 13 -65 13
-136 -3z m177 -107 c137 -67 177 -275 77 -406 -59 -77 -190 -106 -281 -62
-136 66 -177 273 -80 400 65 86 187 115 284 68z"/>
<path d="M3128 2380 c-100 -18 -191 -89 -240 -189 -20 -39 -23 -62 -23 -156 0
-97 3 -116 25 -160 56 -116 171 -187 302 -187 94 0 158 24 222 82 78 72 111
149 111 260 0 122 -22 179 -99 256 -44 44 -75 65 -111 77 -67 21 -130 27 -187
17z m193 -125 c24 -17 55 -53 73 -85 28 -49 31 -64 31 -135 0 -71 -3 -86 -31
-135 -22 -38 -46 -64 -79 -85 -43 -27 -57 -30 -126 -30 -70 0 -81 3 -120 30
-24 17 -57 53 -74 79 -38 63 -47 171 -20 243 40 105 117 155 232 151 61 -3 78
-8 114 -33z"/>
<path d="M465 2254 c-139 -72 -154 -257 -29 -343 80 -55 180 -45 249 23 128
128 41 336 -141 336 -27 0 -62 -7 -79 -16z m141 -64 c127 -62 79 -250 -64
-250 -40 0 -93 38 -115 82 -32 64 -1 144 67 174 43 18 63 17 112 -6z"/>
<path d="M465 1751 c-152 -68 -152 -287 -2 -357 85 -39 157 -27 223 40 97 96
73 250 -48 310 -61 31 -117 33 -173 7z m159 -72 c105 -83 51 -239 -83 -239
-49 0 -104 43 -121 96 -16 49 10 118 54 145 43 26 115 25 150 -2z"/>
<path d="M1286 1438 c-14 -20 -16 -82 -16 -478 0 -501 0 -500 59 -500 57 0 61
16 61 243 l0 207 275 0 275 0 0 -208 c0 -234 3 -246 60 -240 61 6 60 3 58 509
-3 495 -2 489 -59 489 -56 0 -59 -12 -59 -236 l0 -204 -275 0 -275 0 0 203 c0
185 -2 205 -18 220 -26 24 -68 21 -86 -5z"/>
<path d="M490 1258 c-113 -32 -171 -163 -121 -273 87 -192 377 -125 375 85 -1
65 -20 105 -68 148 -54 47 -115 60 -186 40z m127 -78 c75 -45 84 -148 19 -207
-30 -28 -43 -33 -83 -33 -66 0 -106 27 -128 83 -22 57 -9 103 41 147 42 36
101 41 151 10z"/>
<path d="M2532 1210 c-217 -45 -339 -309 -252 -544 63 -167 270 -264 450 -210
63 19 92 35 143 83 38 36 47 67 25 89 -20 20 -45 14 -92 -22 -59 -44 -107 -60
-182 -60 -115 1 -203 64 -245 175 -37 96 -57 89 255 89 323 0 311 -4 303 95
-15 197 -212 345 -405 305z m156 -116 c65 -27 120 -90 136 -156 l6 -28 -230 0
c-264 0 -254 -4 -197 90 57 96 182 137 285 94z"/>
<path d="M3427 1209 c-21 -5 -50 -15 -65 -23 -28 -14 -96 -84 -119 -122 -10
-16 -12 -10 -12 42 -1 85 -36 115 -89 78 -22 -15 -22 -15 -22 -350 0 -212 4
-342 10 -355 12 -22 74 -27 87 -6 4 6 10 113 13 237 5 212 6 228 29 270 56
108 146 160 225 130 32 -12 71 2 78 27 8 31 -9 60 -43 72 -36 12 -39 12 -92 0z"/>
<path d="M3891 1204 c-30 -8 -68 -23 -85 -34 -54 -33 -114 -103 -143 -165 -26
-55 -28 -70 -28 -180 0 -111 2 -124 28 -177 37 -75 98 -134 177 -172 58 -27
75 -30 160 -31 82 0 103 4 150 26 63 29 126 81 135 109 9 29 -12 60 -42 60
-14 0 -41 -14 -61 -31 -20 -17 -52 -38 -71 -47 -46 -20 -164 -20 -212 0 -82
35 -159 139 -159 216 l0 32 275 0 275 0 16 25 c14 21 15 34 5 86 -26 153 -124
257 -269 288 -66 14 -84 13 -151 -5z m190 -121 c59 -30 105 -86 115 -140 l7
-33 -232 0 -232 0 7 23 c47 153 196 220 335 150z"/>
<path d="M6514 867 c-2 -7 -3 -100 -2 -207 3 -187 4 -195 23 -195 19 0 20 8
23 185 1 102 0 195 -3 208 -6 24 -33 30 -41 9z"/>
<path d="M4680 850 c0 -5 0 -13 0 -17 0 -5 28 -10 62 -13 l63 -5 3 -177 c2
-169 3 -178 22 -178 19 0 20 9 22 178 l3 177 65 5 c49 4 65 9 65 20 0 13 -25
15 -152 18 -100 2 -153 -1 -153 -8z"/>
<path d="M510 760 c-147 -27 -210 -206 -113 -321 88 -104 262 -86 325 34 27
51 29 137 5 183 -40 77 -131 120 -217 104z m101 -75 c63 -33 88 -124 52 -186
-25 -42 -93 -73 -140 -64 -44 8 -98 60 -106 103 -22 109 96 197 194 147z"/>
<path d="M5163 740 c-18 -11 -33 -24 -33 -30 0 -5 -4 -10 -10 -10 -5 0 -10 12
-10 26 0 19 -4 25 -17 22 -16 -3 -18 -18 -18 -143 0 -125 2 -140 18 -143 15
-3 17 5 17 70 0 133 30 188 102 188 39 0 54 22 22 34 -25 10 -37 7 -71 -14z"/>
<path d="M5415 745 c-47 -24 -69 -62 -73 -126 -10 -133 101 -213 202 -144 34
23 36 23 36 5 0 -13 7 -20 20 -20 19 0 20 7 20 145 0 138 -1 145 -20 145 -13
0 -20 -7 -20 -20 0 -21 0 -21 -28 0 -38 28 -99 35 -137 15z m125 -54 c53 -52
52 -131 -1 -175 -72 -61 -160 -10 -159 91 1 98 96 148 160 84z"/>
<path d="M5742 748 c-7 -7 1 -36 24 -92 74 -171 87 -196 103 -196 19 0 136
261 127 285 -11 31 -25 12 -72 -100 -27 -63 -51 -115 -54 -115 -3 0 -25 50
-50 110 -45 109 -58 128 -78 108z"/>
<path d="M6195 750 c-11 -4 -33 -22 -49 -39 -39 -41 -49 -135 -20 -189 21 -40
79 -72 129 -72 60 0 131 48 107 72 -8 8 -18 5 -38 -11 -49 -39 -137 -20 -162
34 -25 54 -22 55 104 55 l117 0 -6 41 c-11 84 -106 141 -182 109z"/>
</g>
</svg>
