<svg width="21" height="26" viewBox="0 0 21 26" fill="none" xmlns="http://www.w3.org/2000/svg">
<path d="M18.2504 17.331V10.8572C18.2504 6.8822 16.1125 3.55462 12.3842 2.67418V1.79373C12.3842 0.719063 11.5108 -0.148438 10.4288 -0.148438C9.34681 -0.148438 8.4734 0.719063 8.4734 1.79373V2.67418C4.73207 3.55462 2.6072 6.86925 2.6072 10.8572V17.331L0 19.9206V21.2154H20.8576V19.9206L18.2504 17.331ZM11.7324 17.331H9.1252V14.7415H11.7324V17.331ZM11.7324 12.1519H9.1252V6.97283H11.7324V12.1519ZM10.4288 25.0997C11.8628 25.0997 13.036 23.9344 13.036 22.5102H7.8216C7.8216 23.9344 8.9818 25.0997 10.4288 25.0997Z" fill="white"/>
</svg>
