<svg width="14" height="24" viewBox="0 0 14 24" fill="none" xmlns="http://www.w3.org/2000/svg">
<path d="M7.14373 11.0803C4.18456 10.3164 3.23293 9.52656 3.23293 8.29653C3.23293 6.88522 4.54956 5.90119 6.75265 5.90119C9.07306 5.90119 9.93343 7.00175 10.0116 8.62022H12.8926C12.8014 6.39321 11.4326 4.34746 8.70805 3.68712V0.851562H4.79725V3.64828C2.26826 4.19209 0.234648 5.8235 0.234648 8.32242C0.234648 11.3134 2.72452 12.8023 6.36157 13.6698C9.62057 14.4467 10.2724 15.5861 10.2724 16.7903C10.2724 17.6837 9.63361 19.1079 6.75265 19.1079C4.06723 19.1079 3.01132 17.9167 2.86792 16.3889H0C0.156432 19.2244 2.29434 20.817 4.79725 21.3479V24.1575H8.70805V21.3738C11.2501 20.8947 13.2707 19.4316 13.2707 16.7773C13.2707 13.1001 10.1029 11.8442 7.14373 11.0803Z" fill="white"/>
</svg>
