<svg width="23" height="24" viewBox="0 0 23 24" fill="none" xmlns="http://www.w3.org/2000/svg">
<path d="M19.7762 13.512C19.8223 13.1437 19.8568 12.7754 19.8568 12.3841C19.8568 11.9928 19.8223 11.6245 19.7762 11.2562L22.2047 9.35723C22.4233 9.18459 22.4809 8.87384 22.3428 8.62064L20.0409 4.63848C19.9028 4.38528 19.5921 4.29321 19.3389 4.38528L16.4731 5.5362C15.8746 5.07583 15.2301 4.69603 14.5281 4.4083L14.0907 1.35838C14.0562 1.08216 13.8145 0.875 13.5268 0.875H8.92313C8.6354 0.875 8.39371 1.08216 8.35918 1.35838L7.92183 4.4083C7.21978 4.69603 6.57527 5.08734 5.97679 5.5362L3.11102 4.38528C2.84631 4.2817 2.54707 4.38528 2.40896 4.63848L0.107138 8.62064C-0.0424803 8.87384 0.0265746 9.18459 0.245248 9.35723L2.67367 11.2562C2.62764 11.6245 2.59311 12.0043 2.59311 12.3841C2.59311 12.7639 2.62764 13.1437 2.67367 13.512L0.245248 15.411C0.0265746 15.5837 -0.0309712 15.8944 0.107138 16.1476L2.40896 20.1298C2.54707 20.383 2.85782 20.475 3.11102 20.383L5.97679 19.2321C6.57527 19.6924 7.21978 20.0722 7.92183 20.3599L8.35918 23.4099C8.39371 23.6861 8.6354 23.8932 8.92313 23.8932H13.5268C13.8145 23.8932 14.0562 23.6861 14.0907 23.4099L14.5281 20.3599C15.2301 20.0722 15.8746 19.6809 16.4731 19.2321L19.3389 20.383C19.6036 20.4865 19.9028 20.383 20.0409 20.1298L22.3428 16.1476C22.4809 15.8944 22.4233 15.5837 22.2047 15.411L19.7762 13.512ZM11.225 16.4123C9.00369 16.4123 7.19676 14.6054 7.19676 12.3841C7.19676 10.1629 9.00369 8.35593 11.225 8.35593C13.4462 8.35593 15.2531 10.1629 15.2531 12.3841C15.2531 14.6054 13.4462 16.4123 11.225 16.4123Z" fill="white"/>
</svg>
