<svg width="18" height="23" viewBox="0 0 18 23" fill="none" xmlns="http://www.w3.org/2000/svg">
<path d="M1 4.85156L1 19.8516C1 20.9561 1.89543 21.8516 3 21.8516L5.5 21.8516C5.77614 21.8516 5.99609 21.6264 6.03708 21.3534C6.2347 20.0366 7.22234 18.8516 9 18.8516C10.7777 18.8516 11.7653 20.0366 11.9629 21.3534C12.0039 21.6264 12.2239 21.8516 12.5 21.8516H15C16.1046 21.8516 17 20.9561 17 19.8516L17 4.85156" stroke="white" stroke-width="2"/>
<path d="M1 18.8516L1 3.85156C1 2.74699 1.89543 1.85156 3 1.85156L5.5 1.85156C5.77614 1.85156 5.99609 2.07669 6.03708 2.34977C6.2347 3.66654 7.22234 4.85156 9 4.85156C10.7777 4.85156 11.7653 3.66654 11.9629 2.34977C12.0039 2.07669 12.2239 1.85156 12.5 1.85156H15C16.1046 1.85156 17 2.74699 17 3.85156L17 18.8516" stroke="white" stroke-width="2"/>
<path d="M4 9.85156L14 9.85156" stroke="white" stroke-width="2" stroke-linecap="round"/>
</svg>
